<svg width="26" height="32" viewBox="0 0 26 32" fill="none" xmlns="http://www.w3.org/2000/svg">
<path fill-rule="evenodd" clip-rule="evenodd" d="M12.5714 4.57143C10.0466 4.57143 7.99993 6.61813 7.99993 9.14286V11.4286H17.1428V9.14286C17.1428 6.61813 15.0961 4.57143 12.5714 4.57143ZM3.4285 9.14286V11.4286C1.53499 11.4286 0 12.9636 0 14.8571V28.5714C0 30.4649 1.53502 32 3.42857 32H21.7143C23.6078 32 25.1429 30.4649 25.1429 28.5714V14.8571C25.1429 12.9636 23.6078 11.4286 21.7143 11.4286V9.14286C21.7143 4.09339 17.6208 0 12.5714 0C7.5219 0 3.4285 4.09339 3.4285 9.14286ZM12.5714 24.5714C14.1494 24.5714 15.4286 23.2923 15.4286 21.7143C15.4286 20.1363 14.1494 18.8571 12.5714 18.8571C10.9935 18.8571 9.71429 20.1363 9.71429 21.7143C9.71429 23.2923 10.9935 24.5714 12.5714 24.5714Z" fill="url(#paint0_linear_31_2390)"/>
<defs>
<linearGradient id="paint0_linear_31_2390" x1="15.6444" y1="-0.711111" x2="-2.39756" y2="22.7496" gradientUnits="userSpaceOnUse">
<stop stop-color="#FFA4B1" stop-opacity="0.75"/>
<stop offset="1" stop-color="#FF1C64"/>
</linearGradient>
</defs>
</svg>
