<svg width="32" height="32" viewBox="0 0 32 32" fill="none" xmlns="http://www.w3.org/2000/svg">
<path d="M23.3008 2H6.42358C4.85944 2 3.58496 3.27448 3.58496 4.83862V25.462C3.58496 27.0262 4.85944 28.3007 6.42358 28.3007H19.5643C19.0911 27.2386 19.2939 25.9545 20.1628 25.0854C21.2443 24.0041 22.9725 23.9558 24.1022 24.9407L25.4056 23.6469C25.6277 23.4248 25.8787 23.251 26.1394 23.1158V4.83862C26.1394 3.27448 24.8649 2 23.3008 2ZM9.24286 8.56549H14.8622C15.4029 8.56549 15.8277 8.9903 15.8277 9.53101C15.8277 10.062 15.4029 10.4965 14.8622 10.4965H9.24286C8.70215 10.4965 8.27734 10.062 8.27734 9.53101C8.27734 8.9903 8.70215 8.56549 9.24286 8.56549ZM20.4911 21.7448H9.24286C8.70215 21.7448 8.27734 21.3103 8.27734 20.7793C8.27734 20.2386 8.70215 19.8138 9.24286 19.8138H20.4911C21.0222 19.8138 21.4567 20.2386 21.4567 20.7793C21.4567 21.3103 21.0222 21.7448 20.4911 21.7448ZM20.4911 16.1158H9.24286C8.70215 16.1158 8.27734 15.6813 8.27734 15.1503C8.27734 14.6193 8.70215 14.1848 9.24286 14.1848H20.4911C21.0222 14.1848 21.4567 14.6193 21.4567 15.1503C21.4567 15.6813 21.0222 16.1158 20.4911 16.1158Z" fill="url(#paint0_linear_31_2391)"/>
<path d="M22.8952 26.4528C22.5181 26.0757 21.9071 26.0757 21.5299 26.4528C21.1528 26.83 21.1528 27.441 21.5299 27.8181L23.4289 29.7171C23.6174 29.9057 23.8645 30 24.1115 30C24.3586 30 24.6056 29.9057 24.7942 29.7171L28.132 26.3793C28.5092 26.0022 28.5092 25.3912 28.132 25.014C27.7548 24.6369 27.1439 24.6369 26.7667 25.014L24.1115 27.6692L22.8952 26.4528Z" fill="url(#paint1_linear_31_2391)"/>
<defs>
<linearGradient id="paint0_linear_31_2391" x1="17.6188" y1="1.41554" x2="3.17054" y2="21.9212" gradientUnits="userSpaceOnUse">
<stop stop-color="#FFA4B1" stop-opacity="0.75"/>
<stop offset="1" stop-color="#FF1C64"/>
</linearGradient>
<linearGradient id="paint1_linear_31_2391" x1="25.707" y1="24.6141" x2="23.4265" y2="29.7485" gradientUnits="userSpaceOnUse">
<stop stop-color="#FFA4B1" stop-opacity="0.75"/>
<stop offset="1" stop-color="#FF1C64"/>
</linearGradient>
</defs>
</svg>
