<svg width="27" height="26" viewBox="0 0 27 26" fill="none" xmlns="http://www.w3.org/2000/svg">
<path fill-rule="evenodd" clip-rule="evenodd" d="M26.8453 10.7739C26.6719 9.57335 25.6688 8.70329 24.4552 8.70329C24.4527 8.70329 24.4502 8.70329 24.4478 8.70329C23.623 8.70329 22.853 8.25969 22.4398 7.54493C22.027 6.82937 22.0275 5.93996 22.4421 5.22398C23.0489 4.17583 22.7994 2.87034 21.8494 2.11935C20.8267 1.3112 19.6968 0.657343 18.4901 0.175825C17.3632 -0.273946 16.1065 0.162958 15.5017 1.21485C15.0888 1.93288 14.3188 2.3787 13.4921 2.3787C12.6651 2.3787 11.8951 1.93288 11.4822 1.21485C10.8774 0.162958 9.62023 -0.273946 8.49324 0.175825C7.28784 0.657079 6.15769 1.3112 5.13454 2.11956C4.18447 2.87023 3.93504 4.17578 4.54185 5.22393C4.95645 5.93996 4.95698 6.82937 4.54407 7.54487C4.13121 8.25963 3.36166 8.70324 2.53542 8.70324C2.5332 8.70324 2.53072 8.70324 2.52851 8.70324C1.31614 8.70324 0.31108 9.57356 0.138691 10.7738C0.0467754 11.4108 0 12.0625 0 12.7108C0 13.3587 0.0468281 14.0106 0.138691 14.6479C0.31108 15.8482 1.31614 16.7185 2.52851 16.7185H2.53542C3.36166 16.7185 4.13121 17.162 4.54407 17.8769C4.95698 18.5924 4.95645 19.4818 4.54185 20.1978C3.93504 21.2457 4.18447 22.5514 5.13454 23.3024C6.15721 24.1105 7.28736 24.7644 8.49324 25.2459C8.79172 25.3648 9.09858 25.4217 9.39974 25.4217C10.2394 25.4217 11.0376 24.9806 11.4822 24.2066C11.8951 23.4888 12.6651 23.043 13.4921 23.043C14.3188 23.043 15.0888 23.4888 15.5017 24.2066C16.1065 25.2587 17.3637 25.6956 18.4907 25.2459C19.6961 24.7644 20.8262 24.1105 21.8494 23.3023C22.7994 22.5514 23.0484 21.2459 22.4421 20.1977C22.0275 19.4817 22.027 18.5923 22.4398 17.8768C22.853 17.162 23.6205 16.7184 24.4478 16.7184H24.4552C25.6688 16.7184 26.6719 15.8481 26.8453 14.6479C26.9369 14.0106 26.984 13.359 26.984 12.7108C26.984 12.063 26.9369 11.4114 26.8453 10.7739ZM13.4921 16.1722C11.5835 16.1722 10.0306 14.6196 10.0306 12.7109C10.0306 10.8023 11.5835 9.24967 13.4921 9.24967C15.4004 9.24967 16.9534 10.8023 16.9534 12.7109C16.9534 14.6196 15.4004 16.1722 13.4921 16.1722Z" fill="#8C939F"/>
</svg>
