<svg width="31" height="16" viewBox="0 0 31 16" fill="none" xmlns="http://www.w3.org/2000/svg">
<path d="M15.5117 1.7136e-06C15.2545 -0.000517971 15.0379 0.117242 14.8799 0.250006C14.7219 0.382762 14.6018 0.538664 14.4883 0.710948C14.2612 1.05552 14.0679 1.47196 13.8818 1.89359C13.6959 2.31521 13.5184 2.74121 13.3545 3.07622C13.1906 3.41124 12.9983 3.65301 12.9951 3.65533C12.9913 3.6576 12.7023 3.7655 12.333 3.81647C11.9636 3.86744 11.5024 3.90242 11.0439 3.94734C10.5854 3.99224 10.1315 4.04444 9.73331 4.15242C9.53424 4.20641 9.34724 4.27327 9.17178 4.38191C8.99641 4.49054 8.81814 4.65784 8.73816 4.90243C8.65823 5.14703 8.70264 5.38878 8.78012 5.58017C8.8576 5.77157 8.96872 5.93551 9.09751 6.09679C9.35488 6.41934 9.69077 6.72989 10.0341 7.03723C10.3774 7.34457 10.7282 7.6459 10.996 7.90541C11.2638 8.16492 11.4332 8.42314 11.4345 8.4269C11.4357 8.43068 11.4496 8.73942 11.3836 9.1066C11.3179 9.47378 11.2083 9.92211 11.1092 10.3722C11.0102 10.8224 10.9196 11.2716 10.8992 11.6838C10.8898 11.8899 10.8936 12.0887 10.9431 12.2893C10.9922 12.4898 11.0975 12.7118 11.3054 12.8635C11.5132 13.0152 11.7568 13.0469 11.9627 13.0324C12.1684 13.0179 12.3585 12.9625 12.5515 12.8899C12.9377 12.7446 13.3369 12.5209 13.7351 12.2893C14.1334 12.0576 14.5268 11.8174 14.8563 11.6428C15.1857 11.4681 15.4841 11.3859 15.4881 11.3859C15.4919 11.3859 15.7892 11.4688 16.118 11.6447C16.4467 11.8207 16.8408 12.0628 17.2381 12.2961C17.6354 12.5294 18.0342 12.7548 18.4198 12.9016C18.6126 12.975 18.8019 13.0308 19.0077 13.0461C19.2134 13.0614 19.4565 13.031 19.6649 12.8801C19.8733 12.7293 19.9793 12.5072 20.0292 12.3068C20.0791 12.1065 20.0844 11.9085 20.0751 11.7023C20.0562 11.29 19.9691 10.8413 19.872 10.3908C19.7746 9.94027 19.6666 9.49063 19.6024 9.12319C19.5382 8.75575 19.5524 8.44726 19.5537 8.4435C19.5548 8.43972 19.7262 8.18141 19.9951 7.92298C20.2639 7.66455 20.6154 7.36564 20.9599 7.05969C21.3045 6.75374 21.6417 6.44466 21.9004 6.12315C22.0299 5.9624 22.1416 5.79859 22.2197 5.60752C22.298 5.41644 22.3435 5.17468 22.2647 4.92977C22.1857 4.68485 22.0081 4.51567 21.8331 4.40632C21.6581 4.29698 21.4723 4.23065 21.2735 4.17585C20.8758 4.06626 20.4212 4.01167 19.9629 3.96491C19.5046 3.91816 19.0439 3.88163 18.6748 3.82917C18.3057 3.77671 18.0159 3.66744 18.0127 3.6651C18.0089 3.66283 17.8169 3.4207 17.6543 3.08502C17.4918 2.74934 17.3172 2.32182 17.1328 1.89945C16.9486 1.47708 16.7579 1.06132 16.5322 0.715832C16.4194 0.543089 16.2991 0.385359 16.1416 0.251963C15.9842 0.118564 15.7689 0.000521399 15.5117 1.7136e-06ZM4.84162 5.58505C4.61608 5.58846 4.43313 5.69458 4.30744 5.80381C4.18177 5.91302 4.09251 6.03424 4.01057 6.16318C3.84672 6.42107 3.71631 6.71852 3.59062 7.01672C3.46476 7.31492 3.34626 7.61323 3.23907 7.84192C3.15649 8.0179 3.05633 8.15051 3.03594 8.18665C2.99078 8.19837 2.83649 8.25521 2.6492 8.28432C2.39949 8.32311 2.07926 8.35273 1.75761 8.38978C1.43591 8.42684 1.11467 8.46887 0.821057 8.55386C0.674411 8.59636 0.532457 8.64842 0.39233 8.73843C0.25211 8.82844 0.0993976 8.97416 0.0329535 9.18961C-0.0335661 9.40506 0.0108385 9.61159 0.0758464 9.76481C0.141043 9.91803 0.228357 10.0407 0.32585 10.1584C0.520685 10.3938 0.763537 10.6089 1.00849 10.8205C1.25346 11.0321 1.50074 11.2368 1.68527 11.4094C1.82379 11.5388 1.91924 11.6732 1.94991 11.7082C1.94802 11.7548 1.95369 11.9197 1.92345 12.1066C1.8832 12.356 1.81365 12.6694 1.74959 12.9865C1.68534 13.3037 1.62563 13.6226 1.61581 13.928C1.61014 14.0806 1.61551 14.2309 1.65775 14.3918C1.70008 14.5528 1.79155 14.7426 1.97611 14.8723C2.16055 15.002 2.3717 15.0245 2.53762 15.01C2.70354 14.9955 2.84669 14.95 2.98882 14.8938C3.27306 14.7814 3.55354 14.6178 3.83062 14.4504C4.1077 14.283 4.37795 14.1105 4.59919 13.9885C4.76511 13.897 4.92355 13.8467 4.96639 13.8283C5.00986 13.8453 5.16981 13.8903 5.33847 13.9768C5.56332 14.092 5.83866 14.2563 6.12069 14.4153C6.40276 14.5742 6.6867 14.7295 6.97422 14.8332C7.11785 14.8851 7.26399 14.9263 7.43029 14.9358C7.59658 14.9452 7.80646 14.9167 7.98696 14.7815C8.16743 14.6462 8.2522 14.4534 8.28967 14.2912C8.32709 14.129 8.3286 13.9778 8.31897 13.8254C8.29988 13.5205 8.23034 13.2039 8.15683 12.8889C8.08312 12.5738 8.00356 12.2638 7.95565 12.0158C7.9188 11.8251 7.92126 11.6588 7.91654 11.6174C7.94621 11.5813 8.03809 11.4443 8.1724 11.3107C8.35155 11.1326 8.59317 10.9202 8.8316 10.7013C9.07006 10.4824 9.30517 10.2599 9.49273 10.0187C9.58665 9.8981 9.67056 9.77245 9.73101 9.61733C9.79149 9.46221 9.82946 9.25448 9.75633 9.04115C9.68339 8.82782 9.52611 8.68741 9.3833 8.60169C9.24062 8.51597 9.09778 8.4688 8.94971 8.43079C8.65363 8.35475 8.33093 8.32234 8.00829 8.29505C7.68565 8.26776 7.3645 8.24813 7.11373 8.21693C6.92118 8.19297 6.76521 8.13852 6.72407 8.13002C6.69894 8.09073 6.5969 7.96114 6.5112 7.79212C6.39706 7.56679 6.26986 7.27191 6.1352 6.97766C6.00065 6.6834 5.86054 6.3906 5.68891 6.1378C5.60311 6.01142 5.51032 5.89256 5.38129 5.78721C5.25222 5.68185 5.0672 5.58163 4.84162 5.58505ZM26.1584 5.58505C25.9328 5.58165 25.7473 5.68185 25.6183 5.78721C25.4895 5.89256 25.3955 6.0114 25.3097 6.13779C25.1381 6.39059 24.9991 6.6834 24.8644 6.97765C24.7299 7.27191 24.6025 7.56678 24.4884 7.79212C24.4028 7.96112 24.3006 8.09071 24.2755 8.13001C24.2343 8.13852 24.0784 8.19296 23.8859 8.21692C23.6351 8.24812 23.3139 8.26776 22.9913 8.29504C22.6687 8.32233 22.346 8.35474 22.0499 8.43079C21.9019 8.46881 21.7581 8.51598 21.6153 8.60168C21.4726 8.6874 21.3162 8.82781 21.2433 9.04114C21.1703 9.25447 21.2074 9.4622 21.2676 9.61732C21.3281 9.77243 21.412 9.89808 21.5059 10.0187C21.6934 10.2599 21.9296 10.4824 22.168 10.7013C22.4065 10.9202 22.6471 11.1326 22.8262 11.3107C22.9608 11.4443 23.0525 11.5813 23.0821 11.6174C23.0783 11.6593 23.0808 11.8256 23.0439 12.0158C22.9961 12.2638 22.9164 12.5738 22.8428 12.8889C22.7689 13.2039 22.6988 13.5205 22.6797 13.8254C22.6702 13.9778 22.6721 14.129 22.709 14.2912C22.7464 14.4534 22.832 14.6462 23.0127 14.7815C23.1932 14.9167 23.403 14.9453 23.5693 14.9358C23.7356 14.9263 23.8797 14.8851 24.0234 14.8332C24.311 14.7295 24.5969 14.5742 24.8789 14.4153C25.161 14.2563 25.4363 14.0921 25.6612 13.9768C25.8297 13.8903 25.9898 13.8454 26.0333 13.8283C26.0762 13.8467 26.2345 13.8969 26.4004 13.9885C26.6217 14.1105 26.8919 14.283 27.169 14.4504C27.4461 14.6178 27.7256 14.7814 28.0099 14.8938C28.152 14.95 28.2961 14.9954 28.462 15.01C28.6279 15.0245 28.839 15.0021 29.0235 14.8723C29.208 14.7426 29.2985 14.5528 29.3409 14.3918C29.3832 14.2308 29.3889 14.0806 29.3838 13.9279C29.3744 13.6226 29.3141 13.3037 29.25 12.9865C29.1858 12.6694 29.1162 12.3559 29.0762 12.1066C29.0459 11.9196 29.0525 11.7548 29.0499 11.7082C29.0805 11.6732 29.175 11.5388 29.3136 11.4094C29.498 11.2368 29.7463 11.0321 29.9913 10.8205C30.2363 10.6089 30.4782 10.3938 30.673 10.1584C30.7705 10.0406 30.8587 9.91802 30.9239 9.7648C30.9891 9.61158 31.0334 9.40504 30.9668 9.18959C30.9003 8.97415 30.7466 8.82842 30.6065 8.73841C30.4664 8.6484 30.3256 8.59634 30.1787 8.55384C29.8851 8.46885 29.5639 8.42685 29.2422 8.38977C28.9205 8.35271 28.6003 8.3231 28.3506 8.2843C28.1633 8.2552 28.008 8.19835 27.9629 8.18664C27.9425 8.15049 27.8431 8.01789 27.7607 7.84191C27.6534 7.61322 27.5348 7.3149 27.4092 7.01669C27.2835 6.71849 27.1531 6.42106 26.9892 6.16317C26.9072 6.03423 26.8171 5.913 26.6914 5.80379C26.5655 5.69458 26.3839 5.58848 26.1584 5.58505Z" fill="url(#paint0_linear_57_4065)"/>
<defs>
<linearGradient id="paint0_linear_57_4065" x1="19.2888" y1="-0.333641" x2="14.5669" y2="15.8017" gradientUnits="userSpaceOnUse">
<stop stop-color="#FFA4B1" stop-opacity="0.75"/>
<stop offset="1" stop-color="#FF1C64"/>
</linearGradient>
</defs>
</svg>
