<svg width="30" height="30" viewBox="0 0 30 30" fill="none" xmlns="http://www.w3.org/2000/svg">
<path fill-rule="evenodd" clip-rule="evenodd" d="M0 7C0 3.13401 3.13401 0 7 0H23C26.866 0 30 3.13401 30 7V29C30 29.3762 29.7889 29.7204 29.4538 29.8911C29.1186 30.0618 28.716 30.03 28.4118 29.8088L23.1748 26H7C3.13401 26 0 22.866 0 19V7ZM7.5 8C6.9477 8 6.5 8.4477 6.5 9C6.5 9.5523 6.9477 10 7.5 10H22.5C23.0523 10 23.5 9.5523 23.5 9C23.5 8.4477 23.0523 8 22.5 8H7.5ZM7.5 14C6.9477 14 6.5 14.4477 6.5 15C6.5 15.5523 6.9477 16 7.5 16H13.5C14.0523 16 14.5 15.5523 14.5 15C14.5 14.4477 14.0523 14 13.5 14H7.5Z" fill="url(#paint0_linear_31_2388)"/>
<defs>
<linearGradient id="paint0_linear_31_2388" x1="18.6667" y1="-0.666667" x2="3.17363" y2="24.9739" gradientUnits="userSpaceOnUse">
<stop stop-color="#FFA4B1" stop-opacity="0.75"/>
<stop offset="1" stop-color="#FF1C64"/>
</linearGradient>
</defs>
</svg>
