<svg width="32" height="32" viewBox="0 0 32 32" fill="none" xmlns="http://www.w3.org/2000/svg">
<path d="M25.6601 31C26.3518 30.9992 27.0358 30.8549 27.6689 30.5764C28.302 30.2979 28.8705 29.8912 29.3384 29.3818C29.8064 28.8725 30.1637 28.2717 30.3878 27.6173C30.6118 26.963 30.6977 26.2693 30.6401 25.58L29.3001 9.58001C29.1871 8.33446 28.6146 7.17555 27.694 6.32893C26.7735 5.48232 25.5708 5.0086 24.3201 5.00001H22.3001C21.738 3.80403 20.8471 2.79277 19.7315 2.08443C18.6158 1.37609 17.3216 0.999939 16.0001 0.999939C14.6787 0.999939 13.3845 1.37609 12.2688 2.08443C11.1532 2.79277 10.2623 3.80403 9.70015 5.00001H7.68015C6.42951 5.0086 5.22682 5.48232 4.30627 6.32893C3.38572 7.17555 2.81318 8.33446 2.70015 9.58001L1.36015 25.58C1.30256 26.2693 1.3885 26.963 1.61255 27.6173C1.83659 28.2717 2.19388 28.8725 2.66185 29.3818C3.12982 29.8912 3.6983 30.2979 4.33141 30.5764C4.96451 30.8549 5.64849 30.9992 6.34015 31H25.6601ZM22.9201 7.00001C22.9774 7.33019 23.0041 7.66493 23.0001 8.00001V10C23.0001 10.2652 22.8948 10.5196 22.7073 10.7071C22.5197 10.8946 22.2654 11 22.0001 11C21.7349 11 21.4806 10.8946 21.293 10.7071C21.1055 10.5196 21.0001 10.2652 21.0001 10V8.00001C20.9976 7.66431 20.9641 7.32956 20.9001 7.00001H22.9201ZM16.0001 3.00001C16.7766 2.99854 17.5427 3.17862 18.2372 3.52588C18.9317 3.87313 19.5354 4.37794 20.0001 5.00001H12.0001C12.4649 4.37794 13.0686 3.87313 13.7631 3.52588C14.4576 3.17862 15.2237 2.99854 16.0001 3.00001ZM9.00015 8.00001C8.99615 7.66493 9.02293 7.33019 9.08015 7.00001H11.1001C11.0362 7.32956 11.0027 7.66431 11.0001 8.00001V10C11.0001 10.2652 10.8948 10.5196 10.7073 10.7071C10.5197 10.8946 10.2654 11 10.0001 11C9.73493 11 9.48058 10.8946 9.29304 10.7071C9.10551 10.5196 9.00015 10.2652 9.00015 10V8.00001Z" fill="url(#paint0_linear_31_2426)"/>
<defs>
<linearGradient id="paint0_linear_31_2426" x1="19.5831" y1="0.333271" x2="3.92588" y2="25.6536" gradientUnits="userSpaceOnUse">
<stop stop-color="#FFA4B1" stop-opacity="0.75"/>
<stop offset="1" stop-color="#FF1C64"/>
</linearGradient>
</defs>
</svg>
