<svg width="32" height="32" viewBox="0 0 32 32" fill="none" xmlns="http://www.w3.org/2000/svg">
<path d="M15.526 4.4941L16.7219 3.0222C17.0047 2.68804 17.0047 2.16349 16.7219 1.82933L15.526 0.357365C15.1994 -0.0445506 14.6089 -0.105494 14.207 0.220914C13.8219 0.533821 13.7507 1.08869 14.0327 1.48811H11.2083C5.02801 1.48817 0 6.51624 0 12.6965V17.2935C0 17.8113 0.419793 18.2311 0.937595 18.2311C1.4554 18.2311 1.87519 17.8113 1.87519 17.2935V12.6965C1.87519 7.55022 6.06199 3.36342 11.2083 3.36342H14.0327C13.7508 3.7629 13.8219 4.31771 14.207 4.63061C14.3808 4.77188 14.5899 4.84057 14.7977 4.84051C15.0703 4.84045 15.3407 4.72218 15.526 4.4941Z" fill="url(#paint0_linear_57_4071)"/>
<path d="M31.0589 13.8347C30.5411 13.8347 30.1213 14.2544 30.1213 14.7723V19.3068C30.1213 24.453 25.9345 28.6398 20.7881 28.6398H17.9853C18.2672 28.2404 18.1961 27.6856 17.8109 27.3727C17.409 27.0461 16.8185 27.1072 16.492 27.5091L15.2961 28.981C15.0132 29.3152 15.0134 29.8397 15.2961 30.1739L16.492 31.6458C16.6773 31.8739 16.9476 31.9922 17.2202 31.9922C17.4279 31.9922 17.6371 31.9234 17.8109 31.7823C18.196 31.4694 18.2672 30.9145 17.9852 30.5151H20.7881C26.9684 30.5151 31.9964 25.4871 31.9964 19.3068V14.7723C31.9965 14.2544 31.5767 13.8347 31.0589 13.8347Z" fill="url(#paint1_linear_57_4071)"/>
<path d="M4.91922 26.2201C4.25902 25.9766 3.64171 25.7123 3.41175 25.6121C3.37587 25.5741 3.36206 25.5244 3.37081 25.4639C3.38843 25.3412 3.49645 25.2413 3.66709 25.1899C4.35997 24.9813 5.0241 25.5067 5.0241 25.5067L5.02435 25.5064C5.41914 25.8351 6.00564 25.7853 6.3388 25.3929C6.67383 24.9981 6.62545 24.4064 6.23072 24.0713C5.95557 23.84 5.48208 23.5544 4.90128 23.3932V23.0518C4.90128 22.534 4.48148 22.1142 3.96368 22.1142C3.44588 22.1142 3.02609 22.534 3.02609 23.0518V23.4282C2.20744 23.7124 1.63182 24.3811 1.51462 25.1974C1.39948 25.9998 1.74752 26.7719 2.42309 27.2122C2.46453 27.2392 2.50797 27.2629 2.55316 27.2831C2.58642 27.2979 3.37862 27.6505 4.27027 27.9794C4.57262 28.091 4.9124 28.2958 4.8749 28.506C4.84152 28.693 4.57193 28.9696 4.09938 28.9696C3.59471 28.9696 3.11128 28.7687 2.80619 28.432C2.45847 28.0482 1.86553 28.0191 1.4818 28.3668C1.09814 28.7145 1.06895 29.3075 1.41667 29.6912C1.84509 30.164 2.40427 30.5058 3.02609 30.6896V31.0555C3.02609 31.5733 3.44588 31.9931 3.96368 31.9931C4.48148 31.9931 4.90128 31.5733 4.90128 31.0555V30.7348C5.83906 30.4705 6.55726 29.7521 6.7209 28.8357C6.87885 27.9508 6.4885 26.799 4.91922 26.2201Z" fill="url(#paint2_linear_57_4071)"/>
<path d="M25.3584 6.64196C25.5415 6.82504 25.7814 6.91661 26.0214 6.91661C26.2613 6.91661 26.5013 6.8251 26.6844 6.64196L31.7258 1.60057C32.0919 1.23441 32.0919 0.640784 31.7258 0.274622C31.3596 -0.0915405 30.766 -0.0915405 30.3998 0.274622L26.0214 4.653L24.1845 2.81613C23.8184 2.45003 23.2247 2.44997 22.8586 2.81613C22.4925 3.18229 22.4925 3.77591 22.8586 4.14208L25.3584 6.64196Z" fill="url(#paint3_linear_57_4071)"/>
<path d="M25.0131 22.6712V9.61371C25.0131 9.09591 24.5933 8.67612 24.0755 8.67612H21.3451V9.89305C21.3451 10.4109 20.9253 10.8306 20.4075 10.8306C19.8897 10.8306 19.4699 10.4109 19.4699 9.89305V8.67612H16.9358V9.89305C16.9358 10.4109 16.5161 10.8306 15.9983 10.8306C15.4804 10.8306 15.0607 10.4109 15.0607 9.89305V8.67612H12.5564V9.89305C12.5564 10.4109 12.1366 10.8306 11.6188 10.8306C11.101 10.8306 10.6812 10.4109 10.6812 9.89305V8.67612H7.92099C7.40319 8.67612 6.9834 9.09591 6.9834 9.61371V22.6712C6.9834 23.189 7.40319 23.6088 7.92099 23.6088H24.0755C24.5934 23.6088 25.0131 23.189 25.0131 22.6712ZM15.1728 14.2802C15.3306 13.9646 15.664 13.7934 15.9983 13.7898C16.2418 13.7871 16.486 13.8728 16.6629 14.059C17.2502 14.6393 16.8256 15.6651 15.9997 15.6597C15.9992 15.6597 15.9987 15.6596 15.9982 15.6597C15.3088 15.6741 14.8334 14.8815 15.1728 14.2802ZM11.6191 19.6789C10.9294 19.6956 10.452 18.9006 10.7921 18.3C11.1459 17.6079 12.2005 17.6597 12.4848 18.3831C12.7502 18.9725 12.2651 19.6982 11.6191 19.6789ZM11.6191 15.6597C10.9288 15.6754 10.4521 14.8817 10.7921 14.2802C11.1468 13.5888 12.1996 13.6403 12.4848 14.3634C12.7502 14.9536 12.2655 15.678 11.6191 15.6597ZM15.9984 19.6789C15.9984 19.6789 15.9983 19.6789 15.9983 19.6789C15.3092 19.6957 14.8306 18.8997 15.1721 18.3C15.335 17.9733 15.6666 17.81 15.9983 17.81C16.33 17.81 16.6618 17.9734 16.8248 18.3C17.1653 18.9 16.6879 19.6955 15.9984 19.6789ZM20.4074 19.6789C19.7182 19.6956 19.24 18.8999 19.5811 18.3C19.9076 17.6464 20.9071 17.6471 21.2344 18.3C21.5741 18.9006 21.0972 19.6956 20.4074 19.6789ZM20.4074 15.6597C19.7173 15.6753 19.2408 14.8812 19.5811 14.2802C19.9345 13.5888 20.9893 13.6402 21.2731 14.3634C21.54 14.9531 21.0535 15.6786 20.4074 15.6597Z" fill="url(#paint4_linear_57_4071)"/>
<path d="M12.5568 7.56299C12.5568 7.04519 12.137 6.6254 11.6192 6.6254C11.1014 6.6254 10.6816 7.04519 10.6816 7.56299V8.6761H12.5568V7.56299Z" fill="url(#paint5_linear_57_4071)"/>
<path d="M21.3449 7.56299C21.3449 7.04519 20.9251 6.6254 20.4073 6.6254C19.8895 6.6254 19.4697 7.04519 19.4697 7.56299V8.6761H21.3449V7.56299Z" fill="url(#paint6_linear_57_4071)"/>
<path d="M16.9357 7.56299C16.9357 7.04519 16.5159 6.6254 15.9981 6.6254C15.4803 6.6254 15.0605 7.04519 15.0605 7.56299V8.6761H16.9357V7.56299Z" fill="url(#paint7_linear_57_4071)"/>
<defs>
<linearGradient id="paint0_linear_57_4071" x1="10.5367" y1="-0.393874" x2="0.822226" y2="14.5485" gradientUnits="userSpaceOnUse">
<stop stop-color="#FFA4B1" stop-opacity="0.75"/>
<stop offset="1" stop-color="#FF1C64"/>
</linearGradient>
<linearGradient id="paint1_linear_57_4071" x1="25.6073" y1="13.4312" x2="15.9347" y2="28.3414" gradientUnits="userSpaceOnUse">
<stop stop-color="#FFA4B1" stop-opacity="0.75"/>
<stop offset="1" stop-color="#FF1C64"/>
</linearGradient>
<linearGradient id="paint2_linear_57_4071" x1="4.64553" y1="21.8946" x2="-1.10442" y2="27.2692" gradientUnits="userSpaceOnUse">
<stop stop-color="#FFA4B1" stop-opacity="0.75"/>
<stop offset="1" stop-color="#FF1C64"/>
</linearGradient>
<linearGradient id="paint3_linear_57_4071" x1="28.4431" y1="-0.153702" x2="25.4509" y2="6.58812" gradientUnits="userSpaceOnUse">
<stop stop-color="#FFA4B1" stop-opacity="0.75"/>
<stop offset="1" stop-color="#FF1C64"/>
</linearGradient>
<linearGradient id="paint4_linear_57_4071" x1="18.2019" y1="8.34428" x2="11.2292" y2="22.2773" gradientUnits="userSpaceOnUse">
<stop stop-color="#FFA4B1" stop-opacity="0.75"/>
<stop offset="1" stop-color="#FF1C64"/>
</linearGradient>
<linearGradient id="paint5_linear_57_4071" x1="11.8484" y1="6.57983" x2="10.7479" y2="8.24525" gradientUnits="userSpaceOnUse">
<stop stop-color="#FFA4B1" stop-opacity="0.75"/>
<stop offset="1" stop-color="#FF1C64"/>
</linearGradient>
<linearGradient id="paint6_linear_57_4071" x1="20.6365" y1="6.57983" x2="19.536" y2="8.24525" gradientUnits="userSpaceOnUse">
<stop stop-color="#FFA4B1" stop-opacity="0.75"/>
<stop offset="1" stop-color="#FF1C64"/>
</linearGradient>
<linearGradient id="paint7_linear_57_4071" x1="16.2273" y1="6.57983" x2="15.1268" y2="8.24525" gradientUnits="userSpaceOnUse">
<stop stop-color="#FFA4B1" stop-opacity="0.75"/>
<stop offset="1" stop-color="#FF1C64"/>
</linearGradient>
</defs>
</svg>
