<svg width="55" height="55" viewBox="0 0 55 55" fill="none" xmlns="http://www.w3.org/2000/svg">
<path d="M12.56 31.5305C12.285 30.4907 12.113 29.4336 12.0529 28.3594H8.58874C7.46033 28.3398 7.45958 26.661 8.58877 26.6407C8.58874 26.6407 12.0529 26.6407 12.0529 26.6407C12.1361 25.224 12.4196 23.7484 12.9039 22.3867L4.95268 19.0867C2.8307 24.5967 2.94093 31.222 5.26216 36.7125C5.44969 37.132 5.95548 37.3495 6.37957 37.168C6.37957 37.168 12.7406 34.5383 12.7406 34.5383C13.0848 34.4087 13.2357 34.0791 13.2735 33.7563C13.1209 32.9843 12.7023 32.251 12.56 31.5305Z" fill="white"/>
<path d="M14.7348 13.5266L17.1674 15.95C18.2505 14.9789 19.4626 14.1711 20.7863 13.5438L17.5027 5.6203C12.2506 8.01794 8.01279 12.2547 5.6145 17.5055L13.5572 20.7883C14.1847 19.4563 14.9927 18.2445 15.9468 17.1703L13.5228 14.7383C12.7331 13.9433 13.9393 12.7366 14.7348 13.5266Z" fill="white"/>
<path d="M26.6401 12.057V8.59376C26.6621 7.46474 28.3376 7.46499 28.3593 8.59379V12.057C29.8067 12.1272 31.2779 12.4171 32.6229 12.8992L35.9151 4.95002C33.2325 3.93955 30.3632 3.44347 27.4997 3.4375C24.5427 3.4375 21.7147 3.97031 19.0929 4.95002L22.3765 12.8906C23.7261 12.418 25.1617 12.1344 26.6401 12.057Z" fill="white"/>
<path d="M37.4968 5.6117L34.2045 13.5523C35.5197 14.1797 36.7403 14.9961 37.8148 15.9672L40.2646 13.5266C41.0598 12.7371 42.2668 13.9429 41.4766 14.7383C41.4767 14.7383 39.0354 17.1875 39.0354 17.1875C39.9982 18.2617 40.8148 19.4734 41.4509 20.7883L49.3849 17.5055C47.0296 12.332 42.8606 8.06096 37.4968 5.6117Z" fill="white"/>
<path d="M50.0468 19.0953L42.1128 22.3781C42.5861 23.7213 42.8854 25.1828 42.9466 26.6406H46.4107C46.8835 26.6406 47.2703 27.0273 47.2703 27.5C47.2703 27.9726 46.8835 28.3594 46.4107 28.3594H42.9466C42.8626 30.1722 42.3894 31.9194 41.7603 33.5586C41.6695 33.8834 41.821 34.2614 42.1042 34.4437C42.1594 34.4768 42.201 34.522 42.2589 34.5383L48.6199 37.168C49.0418 37.3674 49.5613 37.123 49.7374 36.7039C52.0656 31.203 52.1637 24.6406 50.0468 19.0953Z" fill="white"/>
<path d="M31.3249 35.243C29.8636 35.3031 28.5054 35.9562 27.4997 37.0304C25.2675 34.503 20.9296 34.6778 19.0156 37.5118C15.3127 43.1615 22.0113 51.4799 27.5254 51.5625C30.9209 51.4594 34.2131 48.5547 35.726 45.7273C36.5168 44.232 38.1328 40.4422 35.9839 37.5117C34.8664 35.982 33.1558 35.1484 31.3249 35.243Z" fill="white"/>
<path d="M27.4998 15.4688C27.1043 15.4688 26.7519 15.7438 26.666 16.1304L24.0098 27.3969C23.443 29.5645 25.2592 31.8553 27.4998 31.7968C29.74 31.8543 31.5569 29.5654 30.9896 27.3968C30.9897 27.3969 28.3335 16.1304 28.3335 16.1304C28.2476 15.7438 27.8952 15.4688 27.4998 15.4688Z" fill="white"/>
</svg>
