<svg width="35" height="35" viewBox="0 0 35 35" fill="none" xmlns="http://www.w3.org/2000/svg">
<g clip-path="url(#clip0_59_3653)">
<path d="M4.99023 32.9492H16.4746V35H1.02539C0.459375 35 0 34.5406 0 33.9746V10.5677C0 10.0017 0.459375 9.5423 1.02539 9.5423H1.91406V29.8731C1.91406 31.5691 3.29424 32.9492 4.99023 32.9492Z" fill="#8C939F"/>
<path d="M35 10.5677V33.9746C35 34.5406 34.5406 35 33.9746 35H18.5254V32.9492H30.0098C31.7058 32.9492 33.0859 31.5691 33.0859 29.8731V9.5423H33.9746C34.5406 9.5423 35 10.0017 35 10.5677Z" fill="#8C939F"/>
<path d="M16.4746 25.0066V30.8984H4.99023C4.42422 30.8984 3.96484 30.4391 3.96484 29.8731V7.04103C3.96484 6.53585 4.33262 6.10587 4.83164 6.02794C4.90068 6.01769 6.05596 5.83927 7.68701 5.77228C7.15538 8.09069 7.48624 10.605 8.6126 12.7149C9.1998 13.823 9.99277 14.8149 10.9361 15.6311V17.93C10.9361 18.6908 11.2239 19.397 11.7038 19.9329V20.5441C11.7038 23.0043 13.7061 25.0066 16.1663 25.0066H16.4746Z" fill="#8C939F"/>
<path d="M31.0352 7.04103V29.8731C31.0352 30.4391 30.5758 30.8984 30.0098 30.8984H18.5254V25.0066H18.8337C21.2939 25.0066 23.2962 23.0043 23.2962 20.5441V19.9329C23.7761 19.397 24.0639 18.6908 24.0639 17.93V15.6318C25.0113 14.8128 25.807 13.8154 26.3949 12.7026C27.514 10.5936 27.8469 8.08987 27.3096 5.77228C28.9427 5.83927 30.0993 6.01769 30.1684 6.02794C30.6674 6.10587 31.0352 6.53585 31.0352 7.04103Z" fill="#8C939F"/>
<path d="M21.2146 20.9276C21.0307 22.0753 20.0327 22.9558 18.8337 22.9558H16.1663C14.9673 22.9558 13.9692 22.0753 13.7853 20.9276C13.8359 20.9303 13.8865 20.9317 13.9371 20.9317H21.0629C21.1135 20.9317 21.164 20.9303 21.2146 20.9276Z" fill="#8C939F"/>
<path d="M12.9869 16.1745H22.0131V17.93C22.0131 18.455 21.5879 18.8808 21.0629 18.8808H13.9371C13.4121 18.8808 12.9869 18.455 12.9869 17.93V16.1745Z" fill="#8C939F"/>
<path d="M25.5103 7.98643C25.5172 10.3626 24.4555 12.6109 22.6727 14.1237H18.4502V8.75137L20.0457 7.15654C20.4162 6.78467 20.4162 6.18311 20.0457 5.8126C19.6745 5.44141 19.0722 5.44141 18.701 5.8126L17.5 7.01367L16.2989 5.8126C15.9277 5.44141 15.3255 5.44141 14.9543 5.8126C14.5838 6.18311 14.5838 6.78467 14.9543 7.15654L16.5498 8.75068V14.1237H12.3279C10.5512 12.6157 9.48962 10.377 9.48962 8.01035C9.48962 5.85977 10.3304 3.84111 11.8562 2.32559C13.3683 0.824416 15.3713 0.00341953 17.5 1.55791e-06C21.8921 -0.00273282 25.4994 3.59434 25.5103 7.98643Z" fill="#8C939F"/>
</g>
<defs>
<clipPath id="clip0_59_3653">
<rect width="35" height="35" fill="white"/>
</clipPath>
</defs>
</svg>
