<svg width="34" height="31" viewBox="0 0 34 31" fill="none" xmlns="http://www.w3.org/2000/svg">
<path d="M32.4353 5.40659C31.7353 3.79659 30.6853 2.39659 29.2153 1.41659C27.0453 -0.0534088 24.1753 -0.403409 21.7253 0.506591C19.2753 1.41659 17.3153 3.58659 16.6153 6.10659C15.9853 3.86659 14.4453 1.97659 12.3453 0.926591C8.14531 -1.31341 3.31531 0.716591 1.14531 4.77659C-1.37469 9.39659 0.655308 14.7166 3.45531 18.7066C6.67531 23.1866 10.8053 26.8966 15.1453 30.3966C16.0553 31.0966 17.2453 31.0966 18.1553 30.3966C22.4953 26.9666 26.6253 23.2566 29.8453 18.7066C31.4553 16.4666 32.7853 13.9466 33.2053 11.2166C33.2753 10.9366 33.2753 10.6566 33.2753 10.3766C33.3453 8.62659 33.0653 6.94659 32.4353 5.40659ZM26.2753 16.5366H22.2853C21.9353 16.5366 21.5853 16.3266 21.3753 16.0466L20.6053 14.8566L18.2253 18.5666C18.0153 18.9166 17.5953 19.1266 17.1753 19.0566C16.7553 19.0566 16.4053 18.7766 16.1953 18.4266L13.3253 12.5466L11.7153 15.8366C11.5053 16.2566 11.1553 16.4666 10.6653 16.4666H6.46531C5.83531 16.4666 5.34531 15.9766 5.34531 15.3466C5.34531 14.7166 5.83531 14.2266 6.46531 14.2266H9.96531L12.2753 9.46659C12.4853 9.04659 12.8353 8.83659 13.3253 8.83659C13.7453 8.83659 14.1653 9.11659 14.3753 9.46659L17.3853 15.6266L19.6253 12.1966C19.8353 11.8466 20.1853 11.7066 20.5353 11.7066C20.8853 11.7066 21.2353 11.9166 21.4453 12.1966L22.8453 14.2966H26.2053C26.8353 14.2966 27.3253 14.7866 27.3253 15.4166C27.3253 16.0466 26.9053 16.5366 26.2753 16.5366Z" fill="#8C939F"/>
</svg>
